# Scaled by Objaction Mover by Maz: 6 May 2016 Scale factor =  2.00000000000000E+0000
# Blender v2.77 (sub 0) OBJ File: ''
# www.blender.org
o Cube_Cube.005
v -0.108175999999958 0.282302000000072 1.78742600000078
v -0.108175999999958 4.28230199999962 1.78742600000078
v -0.108175999999958 0.282302000000072 -2.21257400000104
v -0.108175999999958 4.28230199999962 -2.21257400000104
v 3.89182399999845 0.282302000000072 1.78742600000078
v 3.89182399999845 4.28230199999962 1.78742600000078
v 3.89182399999845 0.282302000000072 -2.21257400000104
v 3.89182399999845 4.28230199999962 -2.21257400000104
v -0.108175999999958 0.282302000000072 1.78742600000078
v -0.108175999999958 0.282302000000072 1.78742600000078
v -0.108175999999958 4.28230199999962 1.78742600000078
v -0.108175999999958 4.28230199999962 1.78742600000078
v -0.108175999999958 4.28230199999962 -2.21257400000104
v -0.108175999999958 4.28230199999962 -2.21257400000104
v -0.108175999999958 0.282302000000072 -2.21257400000104
v -0.108175999999958 0.282302000000072 -2.21257400000104
v 3.89182399999845 4.28230199999962 -2.21257400000104
v 3.89182399999845 4.28230199999962 -2.21257400000104
v 3.89182399999845 0.282302000000072 -2.21257400000104
v 3.89182399999845 0.282302000000072 -2.21257400000104
v 3.89182399999845 4.28230199999962 1.78742600000078
v 3.89182399999845 4.28230199999962 1.78742600000078
v 3.89182399999845 0.282302000000072 1.78742600000078
v 3.89182399999845 0.282302000000072 1.78742600000078
vt 1.0000 0.0000
vt 0.0000 1.0000
vt 0.0000 0.0000
vt 1.0000 0.0000
vt 0.0000 1.0000
vt 0.0000 0.0000
vt 1.0000 0.0000
vt 0.0000 1.0000
vt 0.0000 0.0000
vt 1.0000 0.0000
vt 0.0000 1.0000
vt 0.0000 0.0000
vt 1.0000 0.0000
vt 0.0000 1.0000
vt 0.0000 0.0000
vt 1.0000 0.0000
vt 0.0000 1.0000
vt 0.0000 0.0000
vt 1.0000 1.0000
vt 1.0000 1.0000
vt 1.0000 1.0000
vt 1.0000 1.0000
vt 1.0000 1.0000
vt 1.0000 1.0000
vn -1.0000 0.0000 0.0000
vn 0.0000 0.0000 -1.0000
vn 1.0000 0.0000 0.0000
vn 0.0000 0.0000 1.0000
vn 0.0000 -1.0000 0.0000
vn 0.0000 1.0000 0.0000
s 1
f 13/1/1 9/2/1 11/3/1
f 17/4/2 16/5/2 14/6/2
f 21/7/3 20/8/3 18/9/3
f 12/10/4 24/11/4 22/12/4
f 3/13/5 5/14/5 1/15/5
f 8/16/6 2/17/6 6/18/6
f 13/1/1 15/19/1 9/2/1
f 17/4/2 19/20/2 16/5/2
f 21/7/3 23/21/3 20/8/3
f 12/10/4 10/22/4 24/11/4
f 3/13/5 7/23/5 5/14/5
f 8/16/6 4/24/6 2/17/6
